<mxfile host="app.diagrams.net" modified="2023-12-17T08:54:55.168Z" agent="Mozilla/5.0 (Windows NT 10.0; Win64; x64) AppleWebKit/537.36 (KHTML, like Gecko) Chrome/120.0.0.0 Safari/537.36" etag="BXkS-SIaYoI5G_BenuDC" version="22.1.11" type="github">
  <diagram name="Page-1" id="wpQyrXP4DNro3A0ohTKq">
    <mxGraphModel dx="1050" dy="565" grid="1" gridSize="10" guides="1" tooltips="1" connect="1" arrows="1" fold="1" page="1" pageScale="1" pageWidth="850" pageHeight="1100" math="0" shadow="0">
      <root>
        <mxCell id="0" />
        <mxCell id="1" parent="0" />
        <mxCell id="JH1cDCQ4wQFB-8BBdEl4-1" value="" style="rounded=1;whiteSpace=wrap;html=1;" vertex="1" parent="1">
          <mxGeometry x="110" y="340" width="150" height="40" as="geometry" />
        </mxCell>
        <mxCell id="JH1cDCQ4wQFB-8BBdEl4-2" value="" style="rounded=1;whiteSpace=wrap;html=1;" vertex="1" parent="1">
          <mxGeometry x="110" y="300" width="150" height="40" as="geometry" />
        </mxCell>
        <mxCell id="JH1cDCQ4wQFB-8BBdEl4-3" value="" style="rounded=1;whiteSpace=wrap;html=1;" vertex="1" parent="1">
          <mxGeometry x="110" y="260" width="150" height="40" as="geometry" />
        </mxCell>
        <mxCell id="JH1cDCQ4wQFB-8BBdEl4-4" value="" style="rounded=1;whiteSpace=wrap;html=1;" vertex="1" parent="1">
          <mxGeometry x="110" y="220" width="150" height="40" as="geometry" />
        </mxCell>
        <mxCell id="JH1cDCQ4wQFB-8BBdEl4-5" value="" style="rounded=1;whiteSpace=wrap;html=1;" vertex="1" parent="1">
          <mxGeometry x="110" y="180" width="150" height="40" as="geometry" />
        </mxCell>
        <mxCell id="JH1cDCQ4wQFB-8BBdEl4-6" value="" style="rounded=1;whiteSpace=wrap;html=1;" vertex="1" parent="1">
          <mxGeometry x="390" y="180" width="200" height="200" as="geometry" />
        </mxCell>
        <mxCell id="JH1cDCQ4wQFB-8BBdEl4-7" value="&lt;font style=&quot;font-size: 20px;&quot;&gt;Stack&lt;/font&gt;" style="text;html=1;align=center;verticalAlign=middle;resizable=0;points=[];autosize=1;strokeColor=none;fillColor=none;" vertex="1" parent="1">
          <mxGeometry x="150" y="390" width="70" height="40" as="geometry" />
        </mxCell>
        <mxCell id="JH1cDCQ4wQFB-8BBdEl4-9" value="&lt;font style=&quot;font-size: 20px;&quot;&gt;Heap&lt;/font&gt;" style="text;html=1;align=center;verticalAlign=middle;resizable=0;points=[];autosize=1;strokeColor=none;fillColor=none;" vertex="1" parent="1">
          <mxGeometry x="455" y="390" width="70" height="40" as="geometry" />
        </mxCell>
      </root>
    </mxGraphModel>
  </diagram>
</mxfile>
